<?xml version="1.0" encoding="UTF-8"?>
<svg width="40px" height="40px" viewBox="0 0 40 40" version="1.1" xmlns="http://www.w3.org/2000/svg" xmlns:xlink="http://www.w3.org/1999/xlink">
    <!-- Generator: Sketch 64 (93537) - https://sketch.com -->
    <title>bearish</title>
    <desc>Created with Sketch.</desc>
    <g id="Page-1" stroke="none" stroke-width="1" fill="none" fill-rule="evenodd">
        <g id="bearish" fill-rule="nonzero">
            <g id="Group" transform="translate(0.000000, 15.000000)" fill="#04E1A3">
                <rect id="Rectangle" x="36" y="15" width="4" height="10"></rect>
                <rect id="Rectangle" x="30" y="10" width="4" height="15"></rect>
                <rect id="Rectangle" x="24" y="14" width="4" height="11"></rect>
                <rect id="Rectangle" x="18" y="6" width="4" height="19"></rect>
                <rect id="Rectangle" x="12" y="9" width="4" height="16"></rect>
                <rect id="Rectangle" x="6" y="5" width="4" height="20"></rect>
                <rect id="Rectangle" x="0" y="0" width="4" height="25"></rect>
            </g>
            <g id="Group" fill="#168C68">
                <polygon id="Path" points="30 9.2 26 13.2 16 3.2 11 8.2 3.4 0.6 0.6 3.4 11 13.8 16 8.8 26 18.8 30 14.8 36.1 20.9 38.9 18.1"></polygon>
                <polygon id="Path" points="40 22 31 22 40 13"></polygon>
            </g>
        </g>
    </g>
</svg>