<?xml version="1.0" encoding="UTF-8"?>
<svg width="36px" height="38px" viewBox="0 0 36 38" version="1.1" xmlns="http://www.w3.org/2000/svg" xmlns:xlink="http://www.w3.org/1999/xlink">
    <!-- Generator: Sketch 64 (93537) - https://sketch.com -->
    <title>organization</title>
    <desc>Created with Sketch.</desc>
    <g id="Page-1" stroke="none" stroke-width="1" fill="none" fill-rule="evenodd">
        <g id="organization" fill-rule="nonzero">
            <path d="M36,36 L0,36 L0,4 C0,1.8 1.8,0 4,0 L32,0 C34.2,0 36,1.8 36,4 L36,36 Z" id="Path" fill="#04E1A3"></path>
            <rect id="Rectangle" fill="#1DB889" x="0" y="36" width="36" height="2"></rect>
            <g id="Group" transform="translate(5.000000, 5.000000)" fill="#168C68">
                <rect id="Rectangle" x="20" y="16" width="6" height="5"></rect>
                <rect id="Rectangle" x="10" y="16" width="6" height="5"></rect>
                <rect id="Rectangle" x="0" y="16" width="6" height="5"></rect>
                <rect id="Rectangle" x="20" y="24" width="6" height="5"></rect>
                <rect id="Rectangle" x="0" y="24" width="6" height="5"></rect>
                <rect id="Rectangle" x="20" y="8" width="6" height="5"></rect>
                <rect id="Rectangle" x="10" y="8" width="6" height="5"></rect>
                <rect id="Rectangle" x="0" y="8" width="6" height="5"></rect>
                <rect id="Rectangle" x="20" y="0" width="6" height="5"></rect>
                <rect id="Rectangle" x="10" y="0" width="6" height="5"></rect>
                <rect id="Rectangle" x="0" y="0" width="6" height="5"></rect>
                <rect id="Rectangle" x="10" y="24" width="6" height="9"></rect>
            </g>
        </g>
    </g>
</svg>