<?xml version="1.0" encoding="UTF-8"?>
<svg width="91px" height="103px" viewBox="0 0 91 103" version="1.1" xmlns="http://www.w3.org/2000/svg" xmlns:xlink="http://www.w3.org/1999/xlink">
    <!-- Generator: Sketch 64 (93537) - https://sketch.com -->
    <title>Untitled</title>
    <desc>Created with Sketch.</desc>
    <g id="Page-1" stroke="none" stroke-width="1" fill="none" fill-rule="evenodd">
        <circle id="Oval" fill="#20CE99" cx="44" cy="37" r="30"></circle>
        <path d="M44.5,-4.21884749e-15 C34.4208033,-4.21884749e-15 25.2958033,4.08540166 18.6906025,10.6906025 C12.0854017,17.2958033 8,26.4208033 8,36.5 C8,46.5791967 12.0854017,55.7041967 18.6906025,62.3093975 C25.2958033,68.9145983 34.4208033,73 44.5,73 C52.2754828,73 59.4832312,70.5689408 65.4041833,66.4249299 C71.4932536,62.1632548 76.2219749,56.0907195 78.807916,48.9884748 C80.2264771,45.0924202 81,40.8865421 81,36.5 C81,26.4208033 76.9145983,17.2958033 70.3093975,10.6906025 C63.7041967,4.08540166 54.5791967,-4.21884749e-15 44.5,-4.21884749e-15 Z" id="Oval" stroke="#2F3542" stroke-width="2"></path>
        <text id="ROACH" font-family="SourceSerifPro-Bold, Source Serif Pro" font-size="20" font-weight="bold" line-spacing="27" letter-spacing="4" fill="#252B30">
            <tspan x="3.91" y="96">ROACH</tspan>
        </text>
        <path d="M49.3113935,20.7998698 L46.4764285,18.4409185 L47.2096091,16.7058642 L45.4088732,15.3603925 C45.7060335,13.2176879 46.4569881,10.0891697 47.4290078,9.69789324 C47.5612025,9.64425504 47.7783795,9.60755523 48.1233076,9.90228298 C48.2621676,10.0191578 48.4671249,10.0016548 48.5832118,9.86106626 C48.6981879,9.72047774 48.6798584,9.51157109 48.5421093,9.39413168 C47.9777824,8.91308179 47.4939943,8.95938002 47.187947,9.08190095 C45.7787961,9.64933656 45.0700548,13.2566461 44.8156634,14.9171716 L43.8525307,14.1978552 L42.7322086,14.9154778 C42.4311602,13.2504354 41.6324377,9.7007163 40.2177324,9.17393279 C39.9094633,9.05931644 39.4251198,9.0260043 38.8724571,9.52229873 C38.7374852,9.64312582 38.7247101,9.85259707 38.8441297,9.99036253 C38.9629938,10.1275634 39.169062,10.1405495 39.3045893,10.0191578 C39.6428522,9.71652545 39.8600292,9.74701453 39.9938902,9.79670043 C40.9598,10.1563586 41.776852,13.1674373 42.1378879,15.2971559 L42.0501284,15.3536171 L40.4210234,16.3981503 L41.0220093,18.6328868 L38.6897174,21.1041959 C44.196348,27.3962381 49.3113935,20.7998698 49.3113935,20.7998698 Z M30.4453239,59.0913281 L31.062973,59.2381273 L31.261265,58.8790338 L30.5164202,58.7028747 L30.4453239,59.0913281 Z M30.1015066,60.9737463 L30.9296674,59.4809107 L30.3970006,59.3550021 L30.1015066,60.9737463 Z M30.5652989,58.4403298 L31.3967923,58.6362504 L31.5939735,58.2771568 L30.6363952,58.0507472 L30.5652989,58.4403298 Z M30.6852739,57.7876377 L31.7311671,58.034938 L31.9283483,57.6752798 L30.7552593,57.3991843 L30.6852739,57.7876377 Z M25.0403388,35.9478598 L25.0964382,36.2640428 L25.3258349,36.2708182 L25.2569604,35.8885755 L25.0403388,35.9478598 Z M25.7201972,35.7615376 L25.814622,36.2860627 L25.9912518,36.2922734 L25.88794,35.715804 L25.7201972,35.7615376 Z M25.3841561,35.8524403 L25.4608068,36.2747704 L25.6785392,36.2821104 L25.5935569,35.7965436 L25.3841561,35.8524403 Z M26.0179129,35.6819273 L26.1262237,36.2962257 L26.340068,36.3035657 L26.2189822,35.6265952 L26.0179129,35.6819273 Z M24.7520655,36.0246471 L24.794279,36.2533152 L24.9609109,36.2595259 L24.9114768,35.9811719 L24.7520655,36.0246471 Z M26.3478442,35.5932831 L26.4750399,36.307518 L26.6583351,36.3131641 L26.5211414,35.545291 L26.3478442,35.5932831 Z M24,36.2284722 L24.6587516,36.2482337 L24.6237589,36.0590885 L24,36.2284722 Z M37.8709991,23.0837275 C37.6771506,23.8527298 37.4971881,24.6042291 37.3266681,25.3438715 L31.6206346,18.5544057 C31.5039922,18.415511 31.2984795,18.3985726 31.1607304,18.5177058 C31.0235368,18.6362745 31.0079844,18.8457457 31.1246268,18.985205 L37.1478164,26.1518321 C36.6829133,28.2425923 36.3029924,30.224947 36.0124974,32.0864746 L30.6019579,29.1115311 L27.0954662,35.4018794 L26.6638895,35.5289173 L26.8205235,36.3329255 L27.4137333,36.3408301 L30.8630146,29.9217501 L35.9197389,32.7035961 C35.3898493,36.2764643 35.1643408,39.4309546 35.1715615,42.2105422 L29.3894328,43.8417078 L30.9902104,55.8352075 L30.8002499,56.8814346 L32.0588766,57.17955 L32.2044019,56.9198282 L30.5958481,45.5570007 L35.2359925,44.5994178 C36.0469347,59.5932686 43.9997223,62.3333333 43.9997223,62.3333333 L42.8766229,24.8046665 C39.1523988,24.4399268 37.8709991,23.0837275 37.8709991,23.0837275 Z M57.4819135,58.7034393 L56.7365132,58.8795984 L56.9359161,59.238692 L57.5541207,59.0918927 L57.4819135,58.7034393 Z M57.0686663,59.4814754 L57.8973825,60.9743109 L57.6024439,59.3561314 L57.0686663,59.4814754 Z M57.3641602,58.0507472 L56.4049156,58.2771568 L56.6020968,58.6362504 L57.4330348,58.4403298 L57.3641602,58.0507472 Z M57.2447407,57.3986197 L56.0722072,57.6747152 L56.2693883,58.0343734 L57.3152815,57.7870731 L57.2447407,57.3986197 Z M62.6730542,36.2702535 L62.9030063,36.2634782 L62.9596612,35.9472952 L62.7424842,35.8880108 L62.6730542,36.2702535 Z M62.0070819,36.2922734 L62.1859335,36.2860627 L62.2781365,35.7615376 L62.1098382,35.715804 L62.0070819,36.2922734 Z M62.3203499,36.2815458 L62.5386378,36.2742058 L62.614733,35.8518756 L62.4064431,35.7954144 L62.3203499,36.2815458 Z M61.659932,36.3035657 L61.8726654,36.2962257 L61.9820871,35.6819273 L61.7793515,35.6265952 L61.659932,36.3035657 Z M63.0385336,36.2595259 L63.205721,36.2533152 L63.2468236,36.0246471 L63.0885232,35.9811719 L63.0385336,36.2595259 Z M61.3411095,36.3131641 L61.5244046,36.307518 L61.6516004,35.5932831 L61.4777477,35.545291 L61.3411095,36.3131641 Z M63.3751302,36.0590885 L63.3412484,36.2482337 L64,36.2284722 L63.3751302,36.0590885 Z M57.3963758,29.1115311 L51.9875026,32.0864746 C51.6936749,30.2091378 51.3104214,28.2092802 50.8399639,26.0993231 L56.9942373,18.776863 C57.1114351,18.6374037 57.0953274,18.4284971 56.9575783,18.3093638 C56.8209401,18.1902306 56.6159828,18.2066043 56.498785,18.3460636 L50.6594459,25.2919272 C50.4922586,24.5686585 50.3167396,23.8346622 50.12789,23.0837275 C50.12789,23.0837275 48.8464903,24.4393622 45.1233771,24.8046665 L43.9997223,62.3333333 C43.9997223,62.3333333 51.9525099,59.592704 52.7628966,44.5988532 L57.403041,45.5564361 L55.7944873,56.9192636 L55.9400125,57.1789854 L57.1997501,56.88087 L57.0097896,55.8346429 L58.6111227,43.8411432 L52.8273276,42.2105422 C52.8351038,39.43039 52.6101507,36.2758997 52.0785947,32.7035961 L57.135319,29.9217501 L60.5862667,36.3408301 L61.1783656,36.3329255 L61.3344442,35.5289173 L60.9050892,35.4018794 L57.3963758,29.1115311 Z" id="Shape" fill="#2D353B" fill-rule="nonzero"></path>
    </g>
</svg>