<?xml version="1.0" encoding="UTF-8"?>
<svg width="38px" height="38px" viewBox="0 0 38 38" version="1.1" xmlns="http://www.w3.org/2000/svg" xmlns:xlink="http://www.w3.org/1999/xlink">
    <!-- Generator: Sketch 64 (93537) - https://sketch.com -->
    <title>line_chart</title>
    <desc>Created with Sketch.</desc>
    <g id="Page-1" stroke="none" stroke-width="1" fill="none" fill-rule="evenodd">
        <g id="line_chart" fill-rule="nonzero">
            <g id="Group" transform="translate(0.000000, 23.000000)" fill="#168C68">
                <circle id="Oval" cx="3" cy="10" r="3"></circle>
                <circle id="Oval" cx="11" cy="12" r="3"></circle>
                <circle id="Oval" cx="19" cy="5" r="3"></circle>
                <circle id="Oval" cx="27" cy="7" r="3"></circle>
                <circle id="Oval" cx="35" cy="3" r="3"></circle>
                <polygon id="Path" points="34.1 1.2 26.8 4.9 18.5 2.8 10.5 9.8 3.5 8.1 2.5 11.9 11.5 14.2 19.5 7.2 27.2 9.1 35.9 4.8"></polygon>
            </g>
            <g id="Group" fill="#04E1A3">
                <circle id="Oval" cx="3" cy="15" r="3"></circle>
                <circle id="Oval" cx="11" cy="17" r="3"></circle>
                <circle id="Oval" cx="19" cy="10" r="3"></circle>
                <circle id="Oval" cx="27" cy="15" r="3"></circle>
                <circle id="Oval" cx="35" cy="3" r="3"></circle>
                <path d="M33.3,1.9 C31.2,5.1 28,9.9 26.4,12.3 C25.2,11.6 23.3,10.3 20,8.3 L18.7,7.5 L10.4,14.8 L3.4,13.1 L2.4,17 L11.4,19.3 L19.1,12.6 C21.7,14.2 24.9,16.2 25.6,16.7 L26.1,17.2 L27,17.1 C28.1,17 28.1,17 36.5,4.2 L33.3,1.9 Z" id="Path"></path>
            </g>
        </g>
    </g>
</svg>