<?xml version="1.0" encoding="UTF-8"?>
<svg width="90px" height="80px" viewBox="0 0 90 80" version="1.1" xmlns="http://www.w3.org/2000/svg" xmlns:xlink="http://www.w3.org/1999/xlink">
    <!-- Generator: Sketch 64 (93537) - https://sketch.com -->
    <title>noun_saving piggy_2322115</title>
    <desc>Created with Sketch.</desc>
    <g id="Page-1" stroke="none" stroke-width="1" fill="none" fill-rule="evenodd">
        <g id="noun_saving-piggy_2322115" fill-rule="nonzero">
            <path d="M86.33472,26.964 L86.27344,26.964 C83.3231144,26.9409359 80.5974517,25.3840313 79.07886,22.85444 C76.4330858,18.5517437 72.7447753,14.985904 68.35522,12.48688 L68.35522,3.72821 C68.3552368,2.66954194 67.7836928,1.69334299 66.8604876,1.17520203 C65.9372823,0.657061058 64.8062649,0.677712199 63.90259,1.22921 L51.845,8.58734 L30.57263,8.58734 C14.56775,8.58734 0.43604,21.65149 0.01074,37.65076 C-0.2926607,48.6887171 5.5206794,58.9929245 15.12512,64.44116 L15.12512,70.86023 C15.12512,74.86707 18.35071,78.78613 22.33936,79.16638 C24.5869575,79.3877046 26.8234176,78.6488916 28.4968785,77.1322481 C30.1703395,75.6156046 31.1249378,73.4623883 31.12512,71.20392 L31.12512,68.34064 L52.35522,68.34064 L52.35522,70.86023 C52.35522,74.86707 55.58081,78.78613 59.56958,79.16638 C61.817165,79.3877005 64.0536106,78.6488822 65.7270517,77.132236 C67.4004928,75.6155898 68.3550656,73.4623754 68.35522,71.20392 L68.35522,64.44226 C72.7446601,61.942576 76.4329071,58.3764023 79.07886,54.07355 C80.5974725,51.5439813 83.3231232,49.9870873 86.27344,49.964 L86.33472,49.964 C87.3068161,49.9640053 88.239099,49.5778433 88.9264737,48.8904667 C89.6138485,48.20309 90,47.2708061 90,46.29871 L90,30.62933 C90,28.6050574 88.3589926,26.9640607 86.33472,26.964 L86.33472,26.964 Z" id="Shape" fill="#20CE99"></path>
            <path d="M39.1935484,26.3225806 C41.8064516,26.3709677 45,27.3387097 46.1129032,29.4193548 C46.6935484,30.483871 48,30.8709677 49.0645161,30.2903226 L51.6290323,28.9354839 C52.6935484,28.3548387 53.0806452,27.0483871 52.5,25.983871 C50.7096774,22.5967742 47.3225806,20.3225806 42.9193548,19.5483871 L42.9193548,17.1774194 C42.9193548,15.9677419 41.9516129,15 40.7419355,15 L37.8870968,15 C36.6774194,15 35.7096774,15.9677419 35.7096774,17.1774194 L35.7096774,19.5483871 C30.2903226,20.4677419 24.8709677,23.5645161 25.016129,30 C25.2096774,38.1290323 33.2419355,39.483871 38.5645161,40.3548387 C43.8387097,41.3225806 46.5,42.1935484 46.4516129,44.3225806 C46.4516129,47.7096774 40.9354839,48 39.1935484,48 C36.1451613,48 32.1290323,47.0322581 30.8225806,44.3709677 C30.5806452,43.8387097 30.0967742,43.4516129 29.5645161,43.2580645 C29.0322581,43.0645161 28.4032258,43.1129032 27.8709677,43.4032258 L25.2096774,44.7580645 C24.1451613,45.2903226 23.7580645,46.5967742 24.2419355,47.6612903 C26.1774194,51.6290323 30.3870968,54.3387097 35.6612903,55.0645161 L35.6612903,57.3870968 C35.6612903,58.5967742 36.6290323,59.5645161 37.8387097,59.5645161 L40.6451613,59.5645161 C41.8548387,59.5645161 42.8225806,58.5967742 42.8225806,57.3870968 L42.8225806,55.016129 C48.5806452,54.0967742 53.8548387,50.6612903 53.9032258,44.4193548 C53.9032258,35.7096774 45.3387097,34.2096774 39.6290323,33.2419355 C33.5322581,32.1774194 32.3225806,31.2580645 32.3225806,29.9032258 C32.3225806,29.2258065 32.516129,28.6935484 32.9516129,28.2096774 C34.1129032,27.0483871 36.5322581,26.3225806 39.1935484,26.3225806 Z" id="Path" fill="#168C68"></path>
        </g>
    </g>
</svg>