<?xml version="1.0" encoding="UTF-8"?>
<svg width="31px" height="38px" viewBox="0 0 31 38" version="1.1" xmlns="http://www.w3.org/2000/svg" xmlns:xlink="http://www.w3.org/1999/xlink">
    <!-- Generator: Sketch 64 (93537) - https://sketch.com -->
    <title>doughnut_chart</title>
    <desc>Created with Sketch.</desc>
    <g id="Page-1" stroke="none" stroke-width="1" fill="none" fill-rule="evenodd">
        <g id="doughnut_chart" fill-rule="nonzero">
            <path d="M19,25 C15.7,25 13,22.3 13,19 C13,15.7 15.7,13 19,13 L19,0 C8.5,0 0,8.5 0,19 C0,29.5 8.5,38 19,38 C23.4,38 27.5,36.5 30.8,33.9 L22.8,23.7 C21.7,24.5 20.4,25 19,25 Z" id="Path" fill="#04E1A3"></path>
            <path d="M6,19 L19,19 C19,8.5 10.5,0 0,0 L0,13 C3.3,13 6,15.7 6,19 Z" id="Path" fill="#168C68" transform="translate(9.500000, 9.500000) scale(-1, 1) translate(-9.500000, -9.500000) "></path>
        </g>
    </g>
</svg>