<?xml version="1.0" encoding="UTF-8"?>
<svg width="40px" height="36px" viewBox="0 0 40 36" version="1.1" xmlns="http://www.w3.org/2000/svg" xmlns:xlink="http://www.w3.org/1999/xlink">
    <!-- Generator: Sketch 64 (93537) - https://sketch.com -->
    <title>bullish</title>
    <desc>Created with Sketch.</desc>
    <g id="Page-1" stroke="none" stroke-width="1" fill="none" fill-rule="evenodd">
        <g id="bullish" fill-rule="nonzero">
            <g id="Group" transform="translate(0.000000, 13.000000)" fill="#04E1A3">
                <rect id="Rectangle" x="36" y="0" width="4" height="23"></rect>
                <rect id="Rectangle" x="30" y="7" width="4" height="16"></rect>
                <rect id="Rectangle" x="24" y="2" width="4" height="21"></rect>
                <rect id="Rectangle" x="18" y="8" width="4" height="15"></rect>
                <rect id="Rectangle" x="12" y="11" width="4" height="12"></rect>
                <rect id="Rectangle" x="6" y="9" width="4" height="14"></rect>
                <rect id="Rectangle" x="0" y="13" width="4" height="10"></rect>
            </g>
            <g id="Group" fill="#168C68">
                <polygon id="Path" points="36.1 1.1 30 7.2 26 3.2 16 13.2 11 8.2 0.6 18.6 3.4 21.4 11 13.8 16 18.8 26 8.8 30 12.8 38.9 3.9"></polygon>
                <polygon id="Path" points="40 0 31 0 40 9"></polygon>
            </g>
        </g>
    </g>
</svg>