<?xml version="1.0" encoding="UTF-8"?>
<svg width="48px" height="38px" viewBox="0 0 48 38" version="1.1" xmlns="http://www.w3.org/2000/svg" xmlns:xlink="http://www.w3.org/1999/xlink">
    <!-- Generator: Sketch 64 (93537) - https://sketch.com -->
    <title>graduation_cap</title>
    <desc>Created with Sketch.</desc>
    <g id="Page-1" stroke="none" stroke-width="1" fill="none" fill-rule="evenodd">
        <g id="graduation_cap" transform="translate(0.000000, -1.000000)" fill-rule="nonzero">
            <g id="Group" transform="translate(9.000000, 13.000000)" fill="#168C68">
                <rect id="Rectangle" x="0" y="0" width="30" height="13"></rect>
                <ellipse id="Oval" cx="15" cy="13" rx="15" ry="6"></ellipse>
            </g>
            <path d="M23.1,1.2 L0.6,11.1 C-0.2,11.5 -0.2,12.6 0.6,13 L23.1,22.9 C23.7,23.1 24.3,23.1 24.9,22.9 L47.4,13 C48.2,12.6 48.2,11.5 47.4,11.1 L24.9,1.2 C24.3,0.9 23.7,0.9 23.1,1.2 Z" id="Path" fill="#04E1A3"></path>
            <g id="Group" transform="translate(21.000000, 9.000000)" fill="#168C68">
                <path d="M22.2,4.4 L2.2,1 C1.7,0.9 1.1,1.3 1,1.8 C0.9,2.3 1.3,2.9 1.8,3 L21,6.2 L21,21 C21,21.6 21.4,22 22,22 C22.6,22 23,21.6 23,21 L23,5.4 C23,4.9 22.6,4.5 22.2,4.4 Z" id="Path"></path>
                <circle id="Oval" cx="22" cy="21" r="2"></circle>
                <path d="M25,24 C25,25.7 22,30 22,30 C22,30 19,25.7 19,24 C19,22.3 20.3,21 22,21 C23.7,21 25,22.3 25,24 Z" id="Path"></path>
            </g>
        </g>
    </g>
</svg>